Coordinates
version=1
nRows=9
nColumns=24
inDegrees=yes

Units are S.I. units (second, meters, Newtons, ...)
Angles are in degrees.

endheader
time	pelvis_tilt	pelvis_list	pelvis_rotation	pelvis_tx	pelvis_ty	pelvis_tz	hip_flexion_r	hip_adduction_r	hip_rotation_r	knee_angle_r	ankle_angle_r	subtalar_angle_r	mtp_angle_r	hip_flexion_l	hip_adduction_l	hip_rotation_l	knee_angle_l	ankle_angle_l	subtalar_angle_l	mtp_angle_l	lumbar_extension	lumbar_bending	lumbar_rotation
      3.34500000	     -5.74680329	     -2.12792322	     -6.43471482	     -0.90930928	     -0.04184291	     -0.14631725	     -8.17270301	      6.87493079	      8.33262991	    -27.11744954	      4.09369442	     15.01332508	     19.89893398	     38.17538055	     -2.80719064	    -17.11917276	    -18.74447161	      7.39367217	     13.59513222	    -15.50526623	      5.27670399	      2.25465302	      7.41541415
      3.35000000	     -5.85111025	     -1.69648041	     -6.45110790	     -0.90111079	     -0.04247902	     -0.14687644	     -7.81740833	      6.19484495	      7.72600055	    -28.34134673	      3.02119426	     16.11213386	     20.77210993	     38.18085723	     -2.33313234	    -17.20720024	    -19.37365807	      6.65553512	     12.82164210	    -15.49923005	      5.57425225	      1.79940384	      7.42992453
      3.35500000	     -5.88544319	     -1.24224109	     -6.30486331	     -0.89281646	     -0.04293178	     -0.14760563	     -7.55968763	      5.47783344	      6.96705310	    -29.35746518	      1.27336312	     16.72791852	     22.93623426	     38.08424724	     -1.69129897	    -16.96174542	    -19.87106066	      5.49411219	     11.80585899	    -14.79284671	      5.80894977	      1.28070905	      7.27319567
      3.36000000	     -6.00307174	     -0.74893012	     -6.27071224	     -0.88467933	     -0.04345577	     -0.14824321	     -7.05429377	      4.68221763	      6.23770794	    -30.68689749	     -0.17267758	     17.92586543	     24.20590322	     38.13251258	     -1.12210913	    -16.87897418	    -20.51084930	      4.49075964	     11.01805168	    -14.45579265	      6.09831413	      0.75913673	      7.32022395
      3.36500000	     -6.07102095	     -0.19721265	     -6.16379594	     -0.87625075	     -0.04377161	     -0.14888953	     -6.64803880	      3.81455970	      5.50209589	    -31.78380196	     -2.32949160	     18.59232182	     26.66981022	     38.07946928	     -0.43725652	    -16.75133273	    -21.03923034	      3.25909174	     10.14173608	    -13.32952770	      6.39519324	      0.14157999	      7.22265025
      3.37000000	     -6.21845134	      0.36405834	     -6.00871704	     -0.86805071	     -0.04422858	     -0.14969288	     -6.01008796	      2.91193952	      4.66888518	    -33.23152395	     -4.06401885	     19.84565520	     27.57355975	     38.19477673	      0.30504973	    -16.38575219	    -21.72057610	      2.26934793	      9.20963605	    -13.35047057	      6.72637633	     -0.46827239	      7.11080205
      3.37500000	     -6.34767698	      0.94497761	     -5.82110754	     -0.85979571	     -0.04459536	     -0.15053813	     -5.36869369	      1.96178663	      3.82709462	    -34.62356755	     -6.17940903	     20.90071196	     28.96538329	     38.28697065	      1.10491424	    -15.92287357	    -22.40352619	      1.32131762	      8.23766256	    -13.41179841	      7.03975492	     -1.10438785	      6.97298632
      3.38000000	     -6.43235302	      1.52261592	     -5.57163751	     -0.85140487	     -0.04484273	     -0.15134482	     -4.79931301	      1.01637412	      2.99397922	    -35.87050522	     -8.81512463	     21.51445987	     30.99040423	     38.31974697	      1.93110772	    -15.43316296	    -23.10790386	      0.53352132	      7.42906716	    -13.48283580	      7.32695460	     -1.77399794	      6.73592296
      3.38500000	     -6.62508732	      2.15137306	     -5.41229094	     -0.84317151	     -0.04520974	     -0.15211445	     -3.96415168	      0.00627081	      2.32567023	    -37.45237473	    -11.04224801	     22.54434578	     31.51450708	     38.47714376	      2.75232905	    -14.98501035	    -23.82360624	     -0.18977578	      6.54034372	    -13.80264819	      7.70678250	     -2.45680250	      6.65098671
